<?xml version="1.0" encoding="UTF-8"?><!DOCTYPE svg PUBLIC "-//W3C//DTD SVG 1.1//EN" "http://www.w3.org/Graphics/SVG/1.1/DTD/svg11.dtd"><svg xmlns="http://www.w3.org/2000/svg"><defs><style>.cls-1{fill:#fff;fill-rule:evenodd}</style></defs><symbol id="ico-arrow-white" viewBox="0 0 512 512"><path d="M160 115.4L180.7 96 352 256 180.7 416 160 396.7 310.5 256z"/></symbol><symbol id="ico-close" viewBox="0 0 48 48"><path d="M38 12.83L35.17 10 24 21.17 12.83 10 10 12.83 21.17 24 10 35.17 12.83 38 24 26.83 35.17 38 38 35.17 26.83 24z"/><path d="M0 0h48v48H0z"/></symbol><symbol id="ico-email" viewBox="0 0 50 50"><path d="M1 8h48v34H1zM33.357 25.662L48.89 37.943M1.11 37.942l16.206-12.815"/><path d="M1.11 12.053s18.4 16.037 19.899 17.342S24.069 31 25 31s2.492-.299 3.991-1.604S48.89 12.054 48.89 12.054"/></symbol><symbol id="ico-facebook" viewBox="0 0 24 24"><path d="M18.768 7.465H14.5V5.56c0-.896.594-1.105 1.012-1.105H18.5V.513L14.171.5C10.244.5 9.5 3.438 9.5 5.32v2.145h-3v4h3v12h5v-12h3.851l.417-4z"/></symbol><symbol id="ico-flickr" viewBox="0 0 32 32"><title>flickr</title><path d="M0 17a7 7 0 1 1 14 0 7 7 0 0 1-14 0zm18 0a7 7 0 1 1 14 0 7 7 0 0 1-14 0z"/></symbol><symbol id="ico-google" viewBox="0 0 56.693 56.693"><path d="M52.218 25.852h-7.512v-7.51c0-.573-.465-1.039-1.037-1.039H41.53a1.04 1.04 0 0 0-1.041 1.039v7.51h-7.512c-.572 0-1.039.467-1.039 1.041v2.139a1.04 1.04 0 0 0 1.039 1.039h7.512v7.514a1.04 1.04 0 0 0 1.041 1.039h2.139c.572 0 1.037-.465 1.037-1.039V30.07h7.512a1.04 1.04 0 0 0 1.039-1.039v-2.139a1.04 1.04 0 0 0-1.039-1.04z"/><path d="M26.974 32.438c-1.58-1.119-3.016-2.76-3.041-3.264 0-.918.082-1.357 2.141-2.961 2.662-2.084 4.128-4.824 4.128-7.719 0-2.625-.802-4.957-2.167-6.595h1.059c.219 0 .434-.068.609-.196l2.955-2.141c.367-.263.521-.732.381-1.161a1.042 1.042 0 0 0-.988-.72H18.835c-1.446 0-2.915.255-4.357.751-4.816 1.661-8.184 5.765-8.184 9.978 0 5.969 4.624 10.493 10.805 10.635a5.623 5.623 0 0 0-.182 1.396c0 .92.233 1.791.713 2.633h-.17c-5.892 0-11.21 2.891-13.229 7.193-.526 1.119-.794 2.25-.794 3.367a6.33 6.33 0 0 0 .826 3.113c1.269 2.27 3.994 4.031 7.677 4.961 1.901.48 3.944.725 6.065.725 1.906 0 3.723-.246 5.403-.732 5.238-1.521 8.625-5.377 8.625-9.828-.001-4.271-1.374-6.828-5.059-9.435zm-16.691 9.777c0-3.107 3.947-5.832 8.446-5.832h.121c.979.012 1.934.156 2.834.432.309.213.607.416.893.611 2.084 1.42 3.461 2.357 3.844 3.861.09.379.135.758.135 1.125 0 3.869-2.885 5.83-8.578 5.83-4.315 0-7.695-2.646-7.695-6.027zm4.094-29.357c.703-.803 1.624-1.227 2.658-1.227l.117.002c2.921.086 5.716 3.341 6.23 7.256.289 2.192-.199 4.253-1.301 5.509-.705.805-1.613 1.229-2.689 1.229h-.049c-2.861-.088-5.716-3.467-6.227-7.377-.287-2.186.173-4.151 1.261-5.392z"/></symbol><symbol id="ico-icon_mag" viewBox="0 0 16 16"><path d="M15.7 14.3l-3.1-3.1C13.5 10 14 8.6 14 7c0-3.9-3.1-7-7-7S0 3.1 0 7s3.1 7 7 7c1.6 0 3-.5 4.2-1.4l3.1 3.1c.2.2.4.3.7.3.6 0 1-.4 1-1 0-.2-.1-.5-.3-.7zM2 7c0-2.8 2.2-5 5-5s5 2.2 5 5-2.2 5-5 5-5-2.2-5-5z"/></symbol><symbol id="ico-instagram" viewBox="0 0 24 24"><path d="M12 6c-3.309 0-6 2.691-6 6 0 3.31 2.691 6 6 6s6-2.69 6-6c0-3.309-2.691-6-6-6zM4 1.051a3.42 3.42 0 0 0-1 .301V8.5h1V1.051zM6 8.422V1H5v7.5h.947c.016-.027.036-.052.053-.078z"/><path d="M23 18.848V4.5C23 2.57 21.43 1 19.5 1H7v6.119A6.963 6.963 0 0 1 12 5a6.999 6.999 0 0 1 6.053 3.5H22v10.348A3.156 3.156 0 0 1 18.848 22H5.152A3.156 3.156 0 0 1 2 18.848V2.058C1.383 2.69 1 3.55 1 4.5v14.348A4.157 4.157 0 0 0 5.152 23h13.695A4.157 4.157 0 0 0 23 18.848zM21.5 7h-3a.5.5 0 0 1-.5-.5v-3a.5.5 0 0 1 .5-.5h3a.5.5 0 0 1 .5.5v3a.5.5 0 0 1-.5.5z"/></symbol><symbol id="ico-linkedin" viewBox="0 0 24 24"><path d="M6.527 21.5h-5v-13h5v13zm-2.509-15h-.03C2.478 6.5 1.5 5.318 1.5 4.019c0-1.329 1.008-2.412 2.547-2.412 1.541 0 2.488 1.118 2.519 2.447-.001 1.3-.978 2.446-2.548 2.446zm11.509 6a2 2 0 0 0-2 2v7h-5s.059-12 0-13h5v1.485s1.548-1.443 3.938-1.443c2.962 0 5.062 2.144 5.062 6.304V21.5h-5v-7a2 2 0 0 0-2-2z"/></symbol><symbol id="ico-phone" viewBox="0 0 20 20"><path d="M11.229 11.229c-1.583 1.582-3.417 3.096-4.142 2.371-1.037-1.037-1.677-1.941-3.965-.102-2.287 1.838-.53 3.064.475 4.068 1.16 1.16 5.484.062 9.758-4.211 4.273-4.274 5.368-8.598 4.207-9.758-1.005-1.006-2.225-2.762-4.063-.475-1.839 2.287-.936 2.927.103 3.965.722.725-.791 2.559-2.373 4.142z"/></symbol><symbol id="ico-pinterest" viewBox="0 0 24 24"><path d="M12.137.5C5.86.5 2.695 5 2.695 8.752c0 2.272.86 4.295 2.705 5.047.303.124.574.004.661-.33.062-.231.206-.816.271-1.061.088-.331.055-.446-.19-.736-.532-.626-.872-1.439-.872-2.59 0-3.339 2.498-6.328 6.505-6.328 3.548 0 5.497 2.168 5.497 5.063 0 3.809-1.687 7.024-4.189 7.024-1.382 0-2.416-1.142-2.085-2.545.397-1.675 1.167-3.479 1.167-4.688 0-1.081-.58-1.983-1.782-1.983-1.413 0-2.548 1.461-2.548 3.42 0 1.247.422 2.09.422 2.09l-1.699 7.199c-.505 2.137-.076 4.756-.04 5.02.021.157.224.195.314.078.13-.171 1.813-2.25 2.385-4.325.162-.589.929-3.632.929-3.632.459.876 1.801 1.646 3.228 1.646 4.247 0 7.128-3.871 7.128-9.053C20.5 4.15 17.182.5 12.137.5z"/></symbol><symbol id="ico-ribbon-cta-arrow" viewBox="0 0 46 32"><path id="arrow" class="cls-1" d="M1242.99 870.2h33.79L1264 883h9.03l15.98-16-15.98-16H1264l12.78 12.8h-33.79v6.4z" transform="translate(-1243 -851)"/></symbol><symbol id="ico-search" viewBox="0 0 50 50"><circle cx="21" cy="20" r="16" stroke-linecap="round" stroke-miterlimit="10" stroke-width="6"/><path stroke-miterlimit="10" stroke-width="6" d="M32.229 32.229L45.5 45.5"/></symbol><symbol id="ico-twitter" viewBox="0 0 24 24"><path d="M23.444 4.834c-.814.363-1.5.375-2.228.016.938-.562.981-.957 1.32-2.019-.878.521-1.851.9-2.886 1.104a4.545 4.545 0 0 0-7.742 4.145 12.897 12.897 0 0 1-9.366-4.748 4.525 4.525 0 0 0-.615 2.285c0 1.577.803 2.967 2.021 3.782a4.527 4.527 0 0 1-2.057-.568l-.001.057a4.547 4.547 0 0 0 3.646 4.456 4.575 4.575 0 0 1-2.053.079 4.551 4.551 0 0 0 4.245 3.155A9.138 9.138 0 0 1 1 18.459 12.865 12.865 0 0 0 7.966 20.5c8.358 0 12.928-6.924 12.928-12.929 0-.198-.003-.393-.012-.588.887-.64 1.953-1.237 2.562-2.149z"/></symbol><symbol id="ico-youtube" viewBox="0 0 24 24"><path d="M10.418 1.368a.5.5 0 0 0-.79-.612L7 4.147 4.37.757a.5.5 0 0 0-.79.614L6.5 5.135l.001 4.367a.5.5 0 0 0 1 0L7.5 5.134l2.918-3.766zM11.5 3c-1.103 0-2 .898-2 2v3c0 1.102.897 2 2.001 2 1.103 0 2-.897 2-2L13.5 5c0-1.103-.897-2-2-2zm.001 6A1.001 1.001 0 0 1 10.5 8V5c0-.552.449-1 1-1s1 .449 1 1l.001 3c0 .551-.449 1-1 1zM19.501 7.498l-.001-4a.5.5 0 0 0-1 0l.001 4.002a1.501 1.501 0 0 1-1.5 1.497c-.416-.029-.777-.155-1.06-.438a1.487 1.487 0 0 1-.439-1.061l-.001-4a.5.5 0 0 0-1 0l.001 4c0 .668.26 1.296.732 1.768a2.484 2.484 0 0 0 1.765.731h.002c.572 0 1.093-.199 1.514-.524a.494.494 0 0 0 .486.431.5.5 0 0 0 .5-.5V7.5v-.002z"/><g><path d="M14 17a.5.5 0 0 0-.5.5v2a.5.5 0 0 0 1 0v-2a.5.5 0 0 0-.5-.5zM18.5 17.5a.5.5 0 0 0-1 0v.5h1v-.5z"/><path d="M19 12.5H5a4 4 0 0 0-4 4v3a4 4 0 0 0 4 4h14a4 4 0 0 0 4-4v-3a4 4 0 0 0-4-4zM8.021 16H6.5v4.479a.5.5 0 0 1-1 0V16H3.979a.5.5 0 0 1 0-1h4.042a.5.5 0 0 1 0 1zm2.98 4.905a.489.489 0 0 1-.281-.097A1.474 1.474 0 0 1 10 21c-.827 0-1.5-.673-1.5-1.5v-3.002a.5.5 0 0 1 1 0V19.5a.5.5 0 0 0 1 0v-3.002a.5.5 0 0 1 1 0l.001 3.907a.5.5 0 0 1-.5.5zM15.5 19.5c0 .827-.673 1.5-1.5 1.5a1.48 1.48 0 0 1-.659-.159.496.496 0 0 1-.841-.362V14.5a.5.5 0 0 1 1 0v1.593A1.46 1.46 0 0 1 14 16c.827 0 1.5.673 1.5 1.5v2zm2.586 1.625c-.815 0-1.586-.79-1.586-1.625v-2c0-.827.673-1.5 1.5-1.5s1.5.673 1.5 1.5v1a.5.5 0 0 1-.5.5h-1.5v.5c0 .286.317.625.586.625.227 0 .586-.102.586-.375a.5.5 0 0 1 1 0c0 .784-.682 1.375-1.586 1.375z"/></g></symbol></svg>