<?xml version="1.0" encoding="UTF-8"?><!DOCTYPE svg PUBLIC "-//W3C//DTD SVG 1.1//EN" "http://www.w3.org/Graphics/SVG/1.1/DTD/svg11.dtd"><svg xmlns="http://www.w3.org/2000/svg" xmlns:xlink="http://www.w3.org/1999/xlink"><defs>
    <style>
      .cls-1 {
        fill: #fff;
        fill-rule: evenodd;
      }
    </style>
  </defs><symbol id="ico-arrow-white" viewBox="0 0 512 512"><g style="enable-background:new 0 0 512 512;">
    <polygon points="160,115.4 180.7,96 352,256 180.7,416 160,396.7 310.5,256 "/>
</g></symbol><symbol id="ico-close" viewBox="0 0 48 48"><path d="M38 12.83l-2.83-2.83-11.17 11.17-11.17-11.17-2.83 2.83 11.17 11.17-11.17 11.17 2.83 2.83 11.17-11.17 11.17 11.17 2.83-2.83-11.17-11.17z"/><path d="M0 0h48v48h-48z"/></symbol><symbol id="ico-email" viewBox="0 0 50 50"><g enable-background="new 0 0 50 50">
    <rect height="34" stroke-linecap="round" stroke-miterlimit="10" stroke-width="2" width="48" x="1" y="8"/>
    <line stroke-miterlimit="10" stroke-width="2" x1="33.357" x2="48.89" y1="25.662" y2="37.943"/>
    <line stroke-miterlimit="10" stroke-width="2" x1="1.11" x2="17.316" y1="37.942" y2="25.127"/>
    <path d="M1.11,12.053c0,0,18.4,16.037,19.899,17.342  S24.069,31,25,31s2.492-0.299,3.991-1.604s19.899-17.342,19.899-17.342" stroke-miterlimit="10" stroke-width="1.9959"/>
</g></symbol><symbol id="ico-facebook" viewBox="0 0 24 24"><g enable-background="new 0 0 24 24">
<g>
	<path d="M18.768,7.465H14.5V5.56c0-0.896,0.594-1.105,1.012-1.105s2.988,0,2.988,0V0.513L14.171,0.5C10.244,0.5,9.5,3.438,9.5,5.32
		v2.145h-3v4h3c0,5.212,0,12,0,12h5c0,0,0-6.85,0-12h3.851L18.768,7.465z"/>
</g>
</g></symbol><symbol id="ico-flickr" viewBox="0 0 32 32">
<title>flickr</title>
<path d="M0 17c0-3.866 3.134-7 7-7s7 3.134 7 7c0 3.866-3.134 7-7 7s-7-3.134-7-7zM18 17c0-3.866 3.134-7 7-7s7 3.134 7 7c0 3.866-3.134 7-7 7s-7-3.134-7-7z"/>
</symbol><symbol id="ico-icon_mag" viewBox="0 0 16 16"><g enable-background="new 0 0 16 16">
<path d="M15.7,14.3l-3.1-3.1C13.5,10,14,8.6,14,7c0-3.9-3.1-7-7-7S0,3.1,0,7s3.1,7,7,7c1.6,0,3-0.5,4.2-1.4l3.1,3.1
	c0.2,0.2,0.4,0.3,0.7,0.3c0.6,0,1-0.4,1-1C16,14.8,15.9,14.5,15.7,14.3z M2,7c0-2.8,2.2-5,5-5s5,2.2,5,5s-2.2,5-5,5S2,9.8,2,7z"/>
</g></symbol><symbol id="ico-instagram" viewBox="0 0 24 24"><g enable-background="new 0 0 24 24">
<g>
	<path d="M12,6c-3.309,0-6,2.691-6,6c0,3.31,2.691,6,6,6s6-2.69,6-6C18,8.691,15.309,6,12,6z"/>
</g>
<g>
	<path d="M4,1.051C3.646,1.102,3.312,1.202,3,1.352V8.5h1V1.051z"/>
</g>
<path d="M6,8.422V1H5v7.5h0.947C5.963,8.473,5.983,8.448,6,8.422z"/>
<g>
	<path d="M23,18.848V8.5V5.152V4.5C23,2.57,21.43,1,19.5,1H7v6.119C8.271,5.815,10.04,5,12,5c2.584,0,4.84,1.411,6.053,3.5H22
		v10.348C22,20.586,20.586,22,18.848,22H5.152C3.414,22,2,20.586,2,18.848V8.5V5.152V2.058C1.383,2.69,1,3.55,1,4.5v0.652V8.5
		v10.348C1,21.137,2.863,23,5.152,23h13.695C21.137,23,23,21.137,23,18.848z M21.5,7h-3C18.224,7,18,6.776,18,6.5v-3
		C18,3.224,18.224,3,18.5,3h3C21.776,3,22,3.224,22,3.5v1.652V6.5C22,6.776,21.776,7,21.5,7z"/>
</g>
</g></symbol><symbol id="ico-linkedin" viewBox="0 0 24 24"><g enable-background="new 0 0 24 24">
<g>
	<path d="M6.527,21.5h-5v-13h5V21.5z M4.018,6.5H3.988C2.478,6.5,1.5,5.318,1.5,4.019c0-1.329,1.008-2.412,2.547-2.412
		c1.541,0,2.488,1.118,2.519,2.447C6.565,5.354,5.588,6.5,4.018,6.5z M15.527,12.5c-1.105,0-2,0.896-2,2v7h-5c0,0,0.059-12,0-13h5
		v1.485c0,0,1.548-1.443,3.938-1.443c2.962,0,5.062,2.144,5.062,6.304V21.5h-5v-7C17.527,13.396,16.632,12.5,15.527,12.5z"/>
</g>
</g></symbol><symbol id="ico-phone" viewBox="0 0 20 20"><g style="enable-background:new 0 0 20 20;">
<path d="M11.229,11.229c-1.583,1.582-3.417,3.096-4.142,2.371c-1.037-1.037-1.677-1.941-3.965-0.102
	c-2.287,1.838-0.53,3.064,0.475,4.068c1.16,1.16,5.484,0.062,9.758-4.211c4.273-4.274,5.368-8.598,4.207-9.758
	c-1.005-1.006-2.225-2.762-4.063-0.475c-1.839,2.287-0.936,2.927,0.103,3.965C14.324,7.812,12.811,9.646,11.229,11.229z"/>
</g></symbol><symbol id="ico-pinterest" viewBox="0 0 24 24"><g enable-background="new 0 0 24 24">
<path d="M12.137,0.5C5.86,0.5,2.695,5,2.695,8.752c0,2.272,0.86,4.295,2.705,5.047c0.303,0.124,0.574,0.004,0.661-0.33
	c0.062-0.231,0.206-0.816,0.271-1.061c0.088-0.331,0.055-0.446-0.19-0.736c-0.532-0.626-0.872-1.439-0.872-2.59
	c0-3.339,2.498-6.328,6.505-6.328c3.548,0,5.497,2.168,5.497,5.063c0,3.809-1.687,7.024-4.189,7.024
	c-1.382,0-2.416-1.142-2.085-2.545c0.397-1.675,1.167-3.479,1.167-4.688c0-1.081-0.58-1.983-1.782-1.983
	c-1.413,0-2.548,1.461-2.548,3.42c0,1.247,0.422,2.09,0.422,2.09s-1.445,6.126-1.699,7.199c-0.505,2.137-0.076,4.756-0.04,5.02
	c0.021,0.157,0.224,0.195,0.314,0.078c0.13-0.171,1.813-2.25,2.385-4.325c0.162-0.589,0.929-3.632,0.929-3.632
	c0.459,0.876,1.801,1.646,3.228,1.646c4.247,0,7.128-3.871,7.128-9.053C20.5,4.15,17.182,0.5,12.137,0.5z"/>
</g></symbol><symbol id="ico-ribbon-cta-arrow" viewBox="0 0 46 32">
  
  <path id="arrow" class="cls-1" d="M1242.99,870.2h33.79l-12.78,12.8h9.03L1289.01,867l-15.98-16H1264l12.78,12.8h-33.79V870.2Z" transform="translate(-1243 -851)"/>
</symbol><symbol id="ico-search" viewBox="0 0 50 50"><g enable-background="new 0 0 50 50">
    <circle cx="21" cy="20" r="16" stroke-linecap="round" stroke-miterlimit="10" stroke-width="6"/>
    <line stroke-miterlimit="10" stroke-width="6" x1="32.229" x2="45.5" y1="32.229" y2="45.5"/>
</g></symbol><symbol id="ico-twitter" viewBox="0 0 24 24"><g enable-background="new 0 0 24 24">
<g>
	<path d="M23.444,4.834c-0.814,0.363-1.5,0.375-2.228,0.016c0.938-0.562,0.981-0.957,1.32-2.019c-0.878,0.521-1.851,0.9-2.886,1.104
		C18.823,3.053,17.642,2.5,16.335,2.5c-2.51,0-4.544,2.036-4.544,4.544c0,0.356,0.04,0.703,0.117,1.036
		C8.132,7.891,4.783,6.082,2.542,3.332C2.151,4.003,1.927,4.784,1.927,5.617c0,1.577,0.803,2.967,2.021,3.782
		C3.203,9.375,2.503,9.171,1.891,8.831C1.89,8.85,1.89,8.868,1.89,8.888c0,2.202,1.566,4.038,3.646,4.456
		c-0.666,0.181-1.368,0.209-2.053,0.079c0.579,1.804,2.257,3.118,4.245,3.155C5.783,18.102,3.372,18.737,1,18.459
		C3.012,19.748,5.399,20.5,7.966,20.5c8.358,0,12.928-6.924,12.928-12.929c0-0.198-0.003-0.393-0.012-0.588
		C21.769,6.343,22.835,5.746,23.444,4.834z"/>
</g>
</g></symbol><symbol id="ico-vimeo" viewBox="0 0 56.693 56.693"><g enable-background="new 0 0 56.693 56.693"><path d="M3.602,22.974l2.01,2.636c0,0,4.146-3.267,5.528-1.634c1.382,1.634,6.656,21.357,8.417,24.997  c1.537,3.192,5.777,7.413,10.426,4.397c4.646-3.014,20.098-16.205,22.863-31.781c2.764-15.574-18.594-12.313-20.854,1.256  c5.652-3.395,8.671,1.38,5.778,6.784c-2.889,5.399-5.527,8.921-6.908,8.921c-1.379,0-2.441-3.612-4.021-9.928  c-1.635-6.53-1.624-18.291-8.416-16.958C12.019,12.921,3.602,22.974,3.602,22.974z"/></g></symbol><symbol id="ico-youtube" viewBox="0 0 24 24"><g enable-background="new 0 0 24 24">
<g>
	<g>
		<path d="M10.418,1.368c0.169-0.218,0.129-0.532-0.089-0.701c-0.217-0.169-0.533-0.129-0.701,0.089L7,4.147l-2.63-3.39
			C4.201,0.54,3.887,0.499,3.668,0.669C3.45,0.838,3.41,1.152,3.58,1.371L6.5,5.135l0.001,4.367c0,0.276,0.224,0.5,0.5,0.5
			c0.276,0,0.5-0.224,0.5-0.5L7.5,5.134L10.418,1.368z"/>
		<path d="M11.5,3c-1.103,0-2,0.898-2,2v3c0,1.102,0.897,2,2.001,2c1.103,0,2-0.897,2-2L13.5,5C13.5,3.897,12.603,3,11.5,3z
			 M11.501,9C10.949,9,10.5,8.552,10.5,8V5c0-0.552,0.449-1,1-1s1,0.449,1,1l0.001,3C12.501,8.551,12.052,9,11.501,9z"/>
		<path d="M19.501,7.498l-0.001-4c0-0.276-0.224-0.5-0.5-0.5c-0.276,0-0.5,0.224-0.5,0.5L18.501,7.5
			c-0.002,0.827-0.674,1.497-1.5,1.497c-0.416-0.029-0.777-0.155-1.06-0.438c-0.284-0.283-0.439-0.66-0.439-1.061l-0.001-4
			c0-0.275-0.224-0.5-0.5-0.5c-0.276,0-0.5,0.225-0.5,0.5l0.001,4c0,0.668,0.26,1.296,0.732,1.768
			c0.472,0.471,1.099,0.731,1.765,0.731c0.001,0,0.002,0,0.002,0c0.572,0,1.093-0.199,1.514-0.524
			c0.035,0.243,0.235,0.431,0.486,0.431c0.276,0,0.5-0.224,0.5-0.5V7.5C19.501,7.5,19.501,7.499,19.501,7.498z"/>
	</g>
	<g>
		<path d="M14,17c-0.276,0-0.5,0.224-0.5,0.5v2c0,0.276,0.224,0.5,0.5,0.5s0.5-0.224,0.5-0.5v-2C14.5,17.224,14.276,17,14,17z"/>
		<path d="M18.5,17.5c0-0.276-0.224-0.5-0.5-0.5s-0.5,0.224-0.5,0.5V18h1V17.5z"/>
		<path d="M19,12.5H5c-2.209,0-4,1.791-4,4v3c0,2.209,1.791,4,4,4h14c2.209,0,4-1.791,4-4v-3C23,14.291,21.209,12.5,19,12.5z
			 M8.021,16H6.5v4.479c0,0.276-0.224,0.5-0.5,0.5s-0.5-0.224-0.5-0.5V16H3.979c-0.276,0-0.5-0.224-0.5-0.5s0.224-0.5,0.5-0.5h4.042
			c0.276,0,0.5,0.224,0.5,0.5S8.297,16,8.021,16z M11.001,20.905c-0.106,0-0.199-0.04-0.281-0.097C10.506,20.927,10.263,21,10,21
			c-0.827,0-1.5-0.673-1.5-1.5v-3.002c0-0.276,0.224-0.5,0.5-0.5s0.5,0.224,0.5,0.5V19.5c0,0.276,0.224,0.5,0.5,0.5
			s0.5-0.224,0.5-0.5v-3.002c0-0.276,0.224-0.5,0.5-0.5s0.5,0.224,0.5,0.5l0.001,3.907C11.501,20.681,11.277,20.905,11.001,20.905z
			 M15.5,19.5c0,0.827-0.673,1.5-1.5,1.5c-0.237,0-0.459-0.06-0.659-0.159c-0.089,0.084-0.208,0.138-0.341,0.138
			c-0.276,0-0.5-0.224-0.5-0.5V14.5c0-0.276,0.224-0.5,0.5-0.5s0.5,0.224,0.5,0.5v1.593C13.657,16.036,13.824,16,14,16
			c0.827,0,1.5,0.673,1.5,1.5V19.5z M18.086,21.125c-0.815,0-1.586-0.79-1.586-1.625v-2c0-0.827,0.673-1.5,1.5-1.5
			s1.5,0.673,1.5,1.5v1c0,0.276-0.224,0.5-0.5,0.5h-1.5v0.5c0,0.286,0.317,0.625,0.586,0.625c0.227,0,0.586-0.102,0.586-0.375
			c0-0.276,0.224-0.5,0.5-0.5s0.5,0.224,0.5,0.5C19.672,20.534,18.99,21.125,18.086,21.125z"/>
	</g>
</g>
</g></symbol></svg>