<svg viewBox="0 0 141 141" fill="none" xmlns="http://www.w3.org/2000/svg">
    <path d="M70.1 0C31.4 0 0 31.5 0 70.1C0 71.7 0.100001 73.3 0.200001 74.9H42.2H83C88.7 74.9 93.3 79.5 93.3 85.2C93.3 90.9 88.7 95.5 83 95.5H54.5V85.5H44.8V105.2H82.9C93.9 105.2 102.9 96.3 102.9 85.2C102.9 79.2 100.2 73.7 96 70.1C100.3 66.4 102.9 61 102.9 55C102.9 44 94 35 82.9 35H44.8V54.7H54.5V44.7H82.9C88.6 44.7 93.2 49.3 93.2 55C93.2 60.7 88.6 65.3 82.9 65.3H42.1H9.8C12.3 34.2 38.4 9.7 70.1 9.7C103.4 9.7 130.6 36.8 130.6 70.2C130.6 103.6 103.5 130.7 70.1 130.7C42.1 130.7 18.5 111.5 11.6 85.6H1.6C8.6 116.9 36.6 140.4 70 140.4C108.7 140.4 140.1 108.9 140.1 70.3C140.1 31.7 108.7 0 70.1 0Z" fill="currentColor"/>
</svg>
