<svg xmlns="http://www.w3.org/2000/svg" xml:space="preserve" viewBox="0 0 24 24" fill="currentColor"><path d="M12 6c-3.309 0-6 2.691-6 6 0 3.31 2.691 6 6 6s6-2.69 6-6c0-3.309-2.691-6-6-6zM4 1.051a3.42 3.42 0 0 0-1 .301V8.5h1V1.051zM6 8.422V1H5v7.5h.947c.016-.027.036-.052.053-.078z"/><path d="M23 18.848V4.5C23 2.57 21.43 1 19.5 1H7v6.119A6.963 6.963 0 0 1 12 5a6.999 6.999 0 0 1 6.053 3.5H22v10.348A3.156 3.156 0 0 1 18.848 22H5.152A3.156 3.156 0 0 1 2 18.848V2.058C1.383 2.69 1 3.55 1 4.5v14.348A4.157 4.157 0 0 0 5.152 23h13.695A4.157 4.157 0 0 0 23 18.848zM21.5 7h-3a.5.5 0 0 1-.5-.5v-3a.5.5 0 0 1 .5-.5h3a.5.5 0 0 1 .5.5v3a.5.5 0 0 1-.5.5z"/></svg>
