<svg xmlns="http://www.w3.org/2000/svg" xml:space="preserve" viewBox="0 0 24 24"><path d="M10.418 1.368a.5.5 0 0 0-.79-.612L7 4.147 4.37.757a.5.5 0 0 0-.79.614L6.5 5.135l.001 4.367a.5.5 0 0 0 1 0L7.5 5.134l2.918-3.766zM11.5 3c-1.103 0-2 .898-2 2v3c0 1.102.897 2 2.001 2 1.103 0 2-.897 2-2L13.5 5c0-1.103-.897-2-2-2zm.001 6A1.001 1.001 0 0 1 10.5 8V5c0-.552.449-1 1-1s1 .449 1 1l.001 3c0 .551-.449 1-1 1zM19.501 7.498l-.001-4a.5.5 0 0 0-1 0l.001 4.002a1.501 1.501 0 0 1-1.5 1.497c-.416-.029-.777-.155-1.06-.438a1.487 1.487 0 0 1-.439-1.061l-.001-4a.5.5 0 0 0-1 0l.001 4c0 .668.26 1.296.732 1.768a2.484 2.484 0 0 0 1.765.731h.002c.572 0 1.093-.199 1.514-.524a.494.494 0 0 0 .486.431.5.5 0 0 0 .5-.5V7.498zM14 17a.5.5 0 0 0-.5.5v2a.5.5 0 0 0 1 0v-2a.5.5 0 0 0-.5-.5zM18.5 17.5a.5.5 0 0 0-1 0v.5h1v-.5z"/><path d="M19 12.5H5a4 4 0 0 0-4 4v3a4 4 0 0 0 4 4h14a4 4 0 0 0 4-4v-3a4 4 0 0 0-4-4zM8.021 16H6.5v4.479a.5.5 0 0 1-1 0V16H3.979a.5.5 0 0 1 0-1h4.042a.5.5 0 0 1 0 1zm2.98 4.905a.489.489 0 0 1-.281-.097A1.474 1.474 0 0 1 10 21c-.827 0-1.5-.673-1.5-1.5v-3.002a.5.5 0 0 1 1 0V19.5a.5.5 0 0 0 1 0v-3.002a.5.5 0 0 1 1 0l.001 3.907a.5.5 0 0 1-.5.5zM15.5 19.5c0 .827-.673 1.5-1.5 1.5a1.48 1.48 0 0 1-.659-.159.496.496 0 0 1-.841-.362V14.5a.5.5 0 0 1 1 0v1.593A1.46 1.46 0 0 1 14 16c.827 0 1.5.673 1.5 1.5v2zm2.586 1.625c-.815 0-1.586-.79-1.586-1.625v-2c0-.827.673-1.5 1.5-1.5s1.5.673 1.5 1.5v1a.5.5 0 0 1-.5.5h-1.5v.5c0 .286.317.625.586.625.227 0 .586-.102.586-.375a.5.5 0 0 1 1 0c0 .784-.682 1.375-1.586 1.375z" fill="currentColor"/></svg>
