<svg width="20" height="20" viewBox="0 0 20 20" fill="none" xmlns="http://www.w3.org/2000/svg">
<path d="M3.5 4.5L16.5 4V16L5.5 16.5L3.5 4.5Z" fill="#111"/>
<path fill-rule="evenodd" clip-rule="evenodd" d="M9.75 0C4.365 0 0 4.365 0 9.75C0 15.135 4.365 19.5 9.75 19.5C15.135 19.5 19.5 15.135 19.5 9.75C19.5 4.365 15.135 0 9.75 0ZM14.03 10.28C14.1705 10.1394 14.2493 9.94875 14.2493 9.75C14.2493 9.55125 14.1705 9.36063 14.03 9.22L11.03 6.22C10.9613 6.14631 10.8785 6.08721 10.7865 6.04622C10.6945 6.00523 10.5952 5.98318 10.4945 5.98141C10.3938 5.97963 10.2938 5.99816 10.2004 6.03588C10.107 6.0736 10.0222 6.12974 9.95096 6.20096C9.87974 6.27218 9.8236 6.35701 9.78588 6.4504C9.74816 6.54379 9.72963 6.64382 9.73141 6.74452C9.73318 6.84522 9.75523 6.94454 9.79622 7.03654C9.83721 7.12854 9.89631 7.21134 9.97 7.28L11.69 9H6C5.80109 9 5.61032 9.07902 5.46967 9.21967C5.32902 9.36032 5.25 9.55109 5.25 9.75C5.25 9.94891 5.32902 10.1397 5.46967 10.2803C5.61032 10.421 5.80109 10.5 6 10.5H11.69L9.97 12.22C9.89631 12.2887 9.83721 12.3715 9.79622 12.4635C9.75523 12.5555 9.73318 12.6548 9.73141 12.7555C9.72963 12.8562 9.74816 12.9562 9.78588 13.0496C9.8236 13.143 9.87974 13.2278 9.95096 13.299C10.0222 13.3703 10.107 13.4264 10.2004 13.4641C10.2938 13.5018 10.3938 13.5204 10.4945 13.5186C10.5952 13.5168 10.6945 13.4948 10.7865 13.4538C10.8785 13.4128 10.9613 13.3537 11.03 13.28L14.03 10.28Z" fill="#DAE9F7"/>
</svg>
